<svg width="31" height="31" viewBox="0 0 31 31" fill="none" xmlns="http://www.w3.org/2000/svg">
<g clip-path="url(#clip0_40_122)">
<rect width="31" height="31" rx="5" fill="white"/>
<path d="M15.4987 9.52881C13.9147 9.52881 12.3955 10.1581 11.2754 11.2782C10.1553 12.3983 9.52604 13.9174 9.52604 15.5015C9.52604 17.0855 10.1553 18.6047 11.2754 19.7248C12.3955 20.8449 13.9147 21.4741 15.4987 21.4741C17.0828 21.4741 18.6019 20.8449 19.722 19.7248C20.8421 18.6047 21.4714 17.0855 21.4714 15.5015C21.4714 13.9174 20.8421 12.3983 19.722 11.2782C18.6019 10.1581 17.0828 9.52881 15.4987 9.52881ZM15.4987 19.3804C14.4696 19.3804 13.4827 18.9715 12.755 18.2439C12.0273 17.5162 11.6185 16.5293 11.6185 15.5002C11.6185 14.4711 12.0273 13.4842 12.755 12.7565C13.4827 12.0288 14.4696 11.62 15.4987 11.62C16.5278 11.62 17.5147 12.0288 18.2424 12.7565C18.9701 13.4842 19.3789 14.4711 19.3789 15.5002C19.3789 16.5293 18.9701 17.5162 18.2424 18.2439C17.5147 18.9715 16.5278 19.3804 15.4987 19.3804Z" fill="#001E2B"/>
<path d="M21.7077 10.7013C22.4768 10.7013 23.1002 10.0779 23.1002 9.30892C23.1002 8.53991 22.4768 7.9165 21.7077 7.9165C20.9387 7.9165 20.3153 8.53991 20.3153 9.30892C20.3153 10.0779 20.9387 10.7013 21.7077 10.7013Z" fill="#001E2B"/>
<path d="M26.5218 7.89326C26.2228 7.12108 25.7658 6.41984 25.1802 5.83442C24.5945 5.24901 23.8931 4.79232 23.1208 4.4936C22.2171 4.15435 21.2624 3.97091 20.2972 3.9511C19.0534 3.89685 18.6594 3.88135 15.5052 3.88135C12.3509 3.88135 11.9466 3.88135 10.7131 3.9511C9.74871 3.9699 8.79464 4.15337 7.89208 4.4936C7.11958 4.79197 6.41799 5.24854 5.83231 5.834C5.24662 6.41946 4.78979 7.12088 4.49112 7.89326C4.15181 8.79693 3.96879 9.75176 3.94992 10.7168C3.89437 11.9594 3.87758 12.3534 3.87758 15.5089C3.87758 18.6632 3.87758 19.0649 3.94992 20.301C3.96929 21.2672 4.15142 22.2204 4.49112 23.1259C4.79063 23.898 5.24791 24.5991 5.83373 25.1845C6.41955 25.7699 7.12104 26.2266 7.89337 26.5256C8.79423 26.8784 9.74869 27.075 10.7157 27.1068C11.9595 27.1611 12.3535 27.1778 15.5077 27.1778C18.662 27.1778 19.0663 27.1778 20.2998 27.1068C21.2648 27.0872 22.2195 26.9042 23.1234 26.5656C23.8955 26.2662 24.5967 25.8091 25.1823 25.2235C25.7679 24.6379 26.2249 23.9367 26.5244 23.1646C26.8641 22.2605 27.0462 21.3072 27.0656 20.3411C27.1211 19.0985 27.1379 18.7045 27.1379 15.549C27.1379 12.3934 27.1379 11.993 27.0656 10.7569C27.0505 9.77816 26.8666 8.80938 26.5218 7.89326ZM24.9485 20.2054C24.9402 20.9498 24.8043 21.6873 24.5468 22.3858C24.3529 22.8881 24.0559 23.3442 23.675 23.7248C23.2942 24.1054 22.8379 24.4021 22.3355 24.5958C21.6447 24.8521 20.9151 24.988 20.1784 24.9975C18.9513 25.0543 18.6052 25.0686 15.4587 25.0686C12.3096 25.0686 11.988 25.0686 10.7376 24.9975C10.0013 24.9885 9.272 24.8526 8.58183 24.5958C8.07768 24.4033 7.61954 24.1072 7.23707 23.7265C6.85459 23.3458 6.55629 22.889 6.36146 22.3858C6.10758 21.6948 5.97178 20.966 5.95975 20.23C5.90421 19.0029 5.89129 18.6567 5.89129 15.5102C5.89129 12.3624 5.89129 12.0408 5.95975 10.7892C5.9681 10.0452 6.10397 9.30818 6.36146 8.61014C6.75542 7.59101 7.56271 6.78889 8.58183 6.39881C9.27234 6.14324 10.0014 6.00738 10.7376 5.9971C11.966 5.94156 12.3109 5.92606 15.4587 5.92606C18.6065 5.92606 18.9294 5.92606 20.1784 5.9971C20.9152 6.00596 21.6449 6.14186 22.3355 6.39881C22.8379 6.59291 23.2941 6.8899 23.6749 7.27072C24.0557 7.65154 24.3527 8.10777 24.5468 8.61014C24.8007 9.30112 24.9365 10.0299 24.9485 10.7659C25.0041 11.9943 25.0183 12.3392 25.0183 15.487C25.0183 18.6335 25.0183 18.9719 24.9627 20.2067H24.9485V20.2054Z" fill="#001E2B"/>
</g>
<defs>
<clipPath id="clip0_40_122">
<rect width="31" height="31" rx="5" fill="white"/>
</clipPath>
</defs>
</svg>
