<svg width="30" height="30" viewBox="0 0 30 30" fill="none" xmlns="http://www.w3.org/2000/svg">
<rect width="30" height="30" rx="5" fill="white"/>
<path d="M8.82333 10.6467C9.83033 10.6467 10.6467 9.83033 10.6467 8.82333C10.6467 7.81633 9.83033 7 8.82333 7C7.81633 7 7 7.81633 7 8.82333C7 9.83033 7.81633 10.6467 8.82333 10.6467Z" fill="#001E2B"/>
<path d="M12.3683 12.0283V22.1442H15.5092V17.1417C15.5092 15.8217 15.7575 14.5433 17.3942 14.5433C19.0083 14.5433 19.0283 16.0525 19.0283 17.225V22.145H22.1708V16.5975C22.1708 13.8725 21.5842 11.7783 18.3992 11.7783C16.87 11.7783 15.845 12.6175 15.4258 13.4117H15.3833V12.0283H12.3683ZM7.25 12.0283H10.3958V22.1442H7.25V12.0283Z" fill="#001E2B"/>
</svg>
