<svg width="25" height="24" viewBox="0 0 25 24" fill="none" xmlns="http://www.w3.org/2000/svg">
<path d="M12.4301 1.5C10.1645 1.50258 7.99238 2.3726 6.39033 3.91922C4.78829 5.46584 3.88708 7.56276 3.88441 9.75C3.88169 11.5374 4.48648 13.2763 5.60598 14.7C5.60598 14.7 5.83904 14.9963 5.87711 15.039L12.4301 22.5L18.9862 15.0353C19.0204 14.9955 19.2542 14.7 19.2542 14.7L19.255 14.6978C20.3739 13.2747 20.9784 11.5366 20.9758 9.75C20.9731 7.56276 20.0719 5.46584 18.4699 3.91922C16.8678 2.3726 14.6957 1.50258 12.4301 1.5ZM12.4301 12.75C11.8155 12.75 11.2147 12.5741 10.7036 12.2444C10.1926 11.9148 9.79432 11.4462 9.55912 10.8981C9.32392 10.3499 9.26238 9.74667 9.38228 9.16473C9.50219 8.58279 9.79815 8.04824 10.2327 7.62868C10.6673 7.20912 11.221 6.9234 11.8238 6.80764C12.4266 6.69189 13.0515 6.7513 13.6193 6.97836C14.1871 7.20542 14.6724 7.58994 15.0139 8.08329C15.3554 8.57664 15.5376 9.15666 15.5376 9.75C15.5366 10.5453 15.2089 11.3078 14.6263 11.8702C14.0438 12.4326 13.2539 12.749 12.4301 12.75Z" fill="#3D4F58"/>
</svg>
