<svg width="25" height="24" viewBox="0 0 25 24" fill="none" xmlns="http://www.w3.org/2000/svg">
<path d="M20.7168 10.999H22.7885C22.7885 5.869 18.7767 2 13.4556 2V4C17.6632 4 20.7168 6.943 20.7168 10.999Z" fill="#3D4F58"/>
<path d="M13.4659 8.00024C15.6443 8.00024 16.5734 8.89724 16.5734 11.0002H18.6451C18.6451 7.77524 16.8065 6.00024 13.4659 6.00024V8.00024ZM17.0106 13.4432C16.8115 13.2686 16.55 13.1754 16.2811 13.1835C16.0123 13.1915 15.7572 13.3001 15.5697 13.4862L13.0909 15.9472C12.4943 15.8372 11.2948 15.4762 10.0601 14.2872C8.82536 13.0942 8.45142 11.9332 8.34058 11.3612L10.8877 8.96724C11.0808 8.78637 11.1934 8.54006 11.2017 8.28045C11.2101 8.02083 11.1134 7.76828 10.9323 7.57624L7.10483 3.51324C6.9236 3.3206 6.67172 3.20374 6.40268 3.1875C6.13365 3.17125 5.86865 3.2569 5.66397 3.42624L3.4162 5.28724C3.23711 5.46075 3.13022 5.69169 3.1158 5.93624C3.10026 6.18624 2.80401 12.1082 7.5606 16.7022C11.7102 20.7072 16.908 21.0002 18.3396 21.0002C18.5488 21.0002 18.6772 20.9942 18.7114 20.9922C18.9647 20.9786 19.2038 20.8749 19.3826 20.7012L21.3093 18.5302C21.4848 18.3328 21.5737 18.077 21.5571 17.8173C21.5405 17.5576 21.4196 17.3143 21.2202 17.1392L17.0106 13.4432Z" fill="#3D4F58"/>
</svg>
