<svg width="31" height="31" viewBox="0 0 31 31" fill="none" xmlns="http://www.w3.org/2000/svg">
<g clip-path="url(#clip0_40_130)">
<rect width="31" height="31" rx="5" fill="white"/>
<path d="M25.3593 10.3297C25.3761 10.5557 25.3761 10.7804 25.3761 11.0052C25.3761 17.8833 20.141 25.809 10.5736 25.809C7.626 25.809 4.88767 24.9552 2.58333 23.4724C3.00183 23.5202 3.40483 23.537 3.84012 23.537C6.18191 23.5426 8.45737 22.7595 10.2997 21.314C9.214 21.2943 8.16149 20.9361 7.28918 20.2894C6.41687 19.6426 5.7683 18.7396 5.43404 17.7064C5.75567 17.7542 6.07858 17.7865 6.417 17.7865C6.88329 17.7865 7.35217 17.7219 7.78746 17.6095C6.60915 17.3716 5.54961 16.7329 4.78901 15.802C4.0284 14.8712 3.61369 13.7056 3.61537 12.5035V12.4389C4.309 12.8252 5.11371 13.0667 5.96621 13.099C5.25203 12.6244 4.66643 11.9804 4.26165 11.2245C3.85686 10.4686 3.64549 9.62422 3.64637 8.76674C3.64637 7.80057 3.90342 6.91449 4.35421 6.14207C5.66155 7.75022 7.29211 9.06584 9.14027 10.0037C10.9884 10.9416 13.013 11.4808 15.0828 11.5864C15.0027 11.1989 14.9536 10.7972 14.9536 10.3942C14.9533 9.7109 15.0876 9.03419 15.349 8.4028C15.6103 7.77141 15.9935 7.19772 16.4767 6.71452C16.9599 6.23133 17.5336 5.8481 18.165 5.58676C18.7964 5.32541 19.4731 5.19107 20.1565 5.19141C21.6548 5.19141 23.0072 5.81916 23.9578 6.83441C25.1226 6.60916 26.2396 6.18395 27.2593 5.57761C26.8711 6.77992 26.0578 7.79942 24.9718 8.44512C26.0049 8.32729 27.0145 8.05562 27.9672 7.63912C27.2556 8.67645 26.3739 9.5861 25.3593 10.3297Z" fill="#001E2B"/>
</g>
<defs>
<clipPath id="clip0_40_130">
<rect width="31" height="31" rx="5" fill="white"/>
</clipPath>
</defs>
</svg>
